<svg xmlns="http://www.w3.org/2000/svg" width="2844" height="2844" viewBox="0 0 2844 2844">
  <defs>
    <style>
      .cls-1 {
        fill: #fff8e6;
      }

      .cls-2 {
        fill: #482b1c;
      }

      .cls-2, .cls-3 {
        fill-rule: evenodd;
      }

      .cls-3 {
        fill: #e39e19;
      }
    </style>
  </defs>
  <rect class="cls-1" x="128" y="195" width="2585" height="2461"/>
  <path id="headphone_1" data-name="headphone 1" class="cls-2" d="M807.818,951.839s25.246,25.19,31.019,33.907,17.678,36.094,20.038,51.884,5.029,34.95,5.035,41.92,0.33,378.34.33,378.34,1.715,21.63-4.967,35.95-30.784,55.04-55.927,61.95-64.961,12.17-111.956,8.11-162.149-8.45-197.095-184.46h0l-0.2-234.59s4.019-115.12,110.81-174.817h0s45.7-21.016,48.957-31,171.9-558.219,763.262-558.876,773.47,542.932,777.23,566.149h0s87.96,33.528,130.05,107.664h0s26.03,40.37,26.09,116.77,0.17,194.66.17,194.66-4.76,85.7-45.87,126.83-67.58,66.31-163.88,76.05-120.61-20.84-128.98-27.81-37.03-48.88-37.06-79.82-0.35-406.29-.35-406.29,6.04-44.01,50.9-88.9h0s9.95-8.785,8.99-10.991-146.97-417.11-615.16-416.589S820.7,938.946,807.818,951.839Z"/>
  <path id="book_inner_2" data-name="book inner 2" class="cls-2" d="M498.354,1630.34s5.662-20.24,20.014-20.24,638.242,31.3,900.612,371.37h2s184.76-310.42,905.62-371.37h1s15.01,7.8,15.01,20.24v212.5s-402.04-74.53-922.63,328.86h0s-473.071-378.79-921.626-388.57h0V1630.34Z"/>
  <path id="book_inner_1" data-name="book inner 1" class="cls-3" d="M479,2612V1698.51s8.619-8.88,23.985-9.01,532.635,19.8,916.435,352.57h2s249.92-288.1,920.43-352.57h2s24.99,4.78,24.99,19.03V2612H479Z"/>
  <path id="Border_1" data-name="Border 1" class="cls-2" d="M2,2454.88V367.116S20.175,250.042,105.036,159.041,320.317,48,324.113,48,2506.88,47,2506.88,47s126,6.7,216.08,92.033S2844,323.985,2844,416.134V2460.88s-8.52,125.56-106.04,223.08S2534.45,2796,2504.88,2796H325.114s-116.91-12.87-212.075-108.04S2,2473.39,2,2454.88ZM333.117,236.069H2497.88s76.45-1.327,121.04,59.021,41.02,94.094,41.02,104.038V2439.87s-6.92,85.51-48.02,114.04-85.69,54.02-110.04,54.02H343.12s-58.542-1.11-100.035-47.02-59.021-78.95-59.021-124.04V422.136s0.479-74.826,49.017-129.046S333.117,236.069,333.117,236.069Z"/>
</svg>
